<?xml version="1.0" encoding="UTF-8" standalone="no"?>
<svg width="28px" height="28px" viewBox="0 0 28 28" version="1.1" xmlns="http://www.w3.org/2000/svg" xmlns:xlink="http://www.w3.org/1999/xlink">
    <defs></defs>
    <g id="Page-1" stroke="none" stroke-width="1" fill="none" fill-rule="evenodd">
        <path d="M14,28 C21.7319865,28 28,21.7319865 28,14 C28,6.2680135 21.7319865,0 14,0 C6.2680135,0 0,6.2680135 0,14 C0,21.7319865 6.2680135,28 14,28 Z M10.5747169,4.97412098 L11.9229326,4.21176389 L13.4809503,12.8868145 L18.2801377,10.4866346 L18.6239372,7.4323618 L19.5605457,6.91089838 L20.2881789,10.1749933 L22.6897345,12.5299661 L21.7532282,13.0512837 L18.975534,11.7355966 L14.4370783,14.6040808 L20.9625897,20.444012 L19.6143741,21.2063691 L10.5907429,16.9061552 C9.70259074,17.422653 8.38437564,18.1449578 7.48673298,18.6445976 C6.36615978,19.2686627 5.62991406,19.1064534 5.31795443,18.5462178 C5.00584899,17.9858802 5.23608415,17.2396845 6.35680315,16.6157215 C7.25430001,16.1159796 8.58181605,15.4101828 9.48865756,14.9271968 L10.3620107,5.08115152 L10.5747169,4.97412098 Z" id="arrival" fill="#000000"></path>
    </g>
</svg>