<?xml version="1.0" encoding="UTF-8" standalone="no"?>
<svg width="28px" height="28px" viewBox="0 0 28 28" version="1.1" xmlns="http://www.w3.org/2000/svg" xmlns:xlink="http://www.w3.org/1999/xlink">
    <defs></defs>
    <g id="Page-1" stroke="none" stroke-width="1" fill="none" fill-rule="evenodd">
        <path d="M14,28 C21.7319865,28 28,21.7319865 28,14 C28,6.2680135 21.7319865,0 14,0 C6.2680135,0 0,6.2680135 0,14 C0,21.7319865 6.2680135,28 14,28 Z M8.96250516,6.2494287 L7.56471409,6.91655222 L13.7772573,13.1686102 L9.05844422,15.7231878 L6.35933511,14.2529529 L5.39496073,14.7210785 L7.65139743,17.1893287 L8.20300249,20.5073248 L9.16719888,20.0391992 L9.68267105,17.0091983 L14.6355469,14.9368079 L15.676459,23.6318409 L17.0742501,22.9647174 L18.7274633,13.1064901 C19.6599766,12.6752094 21.0077513,12.0096878 21.9318989,11.5609636 C23.0858374,11.0009928 23.3752565,10.3048562 23.0952711,9.72797588 C22.8152857,9.1509176 22.0719806,8.91151495 20.918042,9.47166375 C19.9938944,9.92020997 18.6543075,10.602819 17.7385256,11.0686307 L9.17218273,6.13658017 L8.96250516,6.2494287 Z" id="departure" fill="#000000"></path>
    </g>
</svg>